<svg width="28" height="24" viewBox="0 0 28 24" fill="none" xmlns="http://www.w3.org/2000/svg">
<g clip-path="url(#clip0_936_9872)">
<path d="M1.99947 9.28003L1.34631 13.4112" stroke="#5D5D5D" stroke-linecap="round" stroke-linejoin="round"/>
<path d="M23.1539 9.15771H25.8462" stroke="#5D5D5D" stroke-linecap="round" stroke-linejoin="round"/>
<path d="M4.84624 9.15771H2.15393" stroke="#5D5D5D" stroke-linecap="round" stroke-linejoin="round"/>
<path fill-rule="evenodd" clip-rule="evenodd" d="M27.7308 14.842H0.269287V13.5789H27.7308V14.842Z" stroke="#5D5D5D" stroke-linecap="round" stroke-linejoin="round"/>
<path d="M0.807739 15.1577V20.8988V23.684H2.42312V21.1577H26.1154V23.684H27.1924V20.8988V15.1577" stroke="#5D5D5D" stroke-linecap="round" stroke-linejoin="round"/>
<path d="M26.1155 8.8419V1.89453" stroke="#5D5D5D" stroke-linecap="round" stroke-linejoin="round"/>
<path d="M1.88464 1.89453V8.8419" stroke="#5D5D5D" stroke-linecap="round" stroke-linejoin="round"/>
<path d="M2.96155 1.89453V8.8419" stroke="#5D5D5D" stroke-linecap="round" stroke-linejoin="round"/>
<path d="M25.0386 1.89453V8.8419" stroke="#5D5D5D" stroke-linecap="round" stroke-linejoin="round"/>
<path fill-rule="evenodd" clip-rule="evenodd" d="M26.6539 1.57883H1.34619V0.315674H26.6539V1.57883Z" stroke="#5D5D5D" stroke-linecap="round" stroke-linejoin="round"/>
<path fill-rule="evenodd" clip-rule="evenodd" d="M22.8933 9.6826C22.9283 10.059 22.6763 10.4196 22.3295 10.474C19.8795 10.7967 17.3854 10.7967 14.9359 10.474C14.5891 10.4209 14.3371 10.059 14.3721 9.6826C14.5138 8.10302 14.6548 6.52281 14.7965 4.94512C14.8315 4.56744 15.1034 4.15755 15.4049 4.04512C17.5464 3.24049 19.7191 3.24049 21.8605 4.04512C22.1626 4.15881 22.4345 4.56807 22.4695 4.94512C22.6106 6.5247 22.7522 8.10365 22.8933 9.6826Z" stroke="#5D5D5D" stroke-linecap="round" stroke-linejoin="round"/>
<path fill-rule="evenodd" clip-rule="evenodd" d="M13.6279 9.6826C13.6629 10.059 13.4109 10.4196 13.0641 10.474C10.6141 10.7967 8.12053 10.7967 5.67053 10.474C5.32429 10.4209 5.07176 10.059 5.10676 9.6826C5.24837 8.10302 5.38945 6.52281 5.53106 4.94512C5.56606 4.56744 5.83799 4.15755 6.13953 4.04512C8.28099 3.24049 10.4537 3.24049 12.5951 4.04512C12.8967 4.15691 13.1691 4.56807 13.2041 4.94512C13.3452 6.5247 13.4863 8.10365 13.6279 9.6826Z" stroke="#5D5D5D" stroke-linecap="round" stroke-linejoin="round"/>
<path d="M26.0006 9.28003L26.6538 13.4112" stroke="#5D5D5D" stroke-linecap="round" stroke-linejoin="round"/>
</g>
<defs>
<clipPath id="clip0_936_9872">
<rect width="28" height="24" fill="white"/>
</clipPath>
</defs>
</svg>
